<?xml version="1.0" encoding="UTF-8"?>
<svg xmlns="http://www.w3.org/2000/svg" xmlns:xlink="http://www.w3.org/1999/xlink" viewBox="0 0 50 50" width="50px" height="50px">
<g id="surface111624382">
<path style=" stroke:none;fill-rule:nonzero;fill:rgb(100%,100%,100%);fill-opacity:1;" d="M 49.730469 11 L 48.878906 11 C 47.828125 11 46.839844 11.488281 46.199219 12.324219 L 37.5 23.699219 L 28.800781 12.324219 C 28.160156 11.488281 27.171875 11 26.121094 11 L 25.269531 11 L 36.242188 25.347656 L 25.035156 40 L 25.886719 40 C 26.9375 40 27.925781 39.511719 28.566406 38.675781 L 37.5 26.992188 L 46.433594 38.675781 C 47.074219 39.511719 48.0625 40 49.113281 40 L 49.964844 40 L 38.757812 25.347656 Z M 21.289062 34.242188 C 18.734375 38.121094 13.707031 40.113281 8.898438 38.359375 C 4.671875 36.816406 2 32.609375 2 28.109375 L 2 27 L 25 27 L 25 22.867188 C 25 16.359375 20.183594 10.664062 13.703125 10.058594 C 6.273438 9.359375 0 15.210938 0 22.5 L 0 28.074219 C 0 33.445312 3.214844 38.4375 8.269531 40.257812 C 14.871094 42.632812 21.816406 39.085938 24.164062 33 L 23.527344 33 C 22.617188 33 21.789062 33.480469 21.289062 34.242188 Z M 2 22.5 C 2 16.710938 6.710938 12 12.5 12 C 18.289062 12 23 16.710938 23 22.5 L 23 25 L 2 25 Z M 2 22.5 "/>
</g>
</svg>
